# xmcd CD database file
#
# Track frame offsets:
#	150
#	18182
#	28381
#	50331
#	58138
#	73861
#	97637
#	113768
#	130033
#	165790
#	182187
#	196152
#	205142
#	216042
#
# Disc length: 3031 seconds
#
# Revision: 0
# Processed by: cddbd v1.4PL0 Copyright (c) Steve Scherf et al.
# Submitted via: CDex 1.50
#
DISCID=b90bd50e
DTITLE=Willie Nelson - On The Road Again
DYEAR=1900
DGENRE=Country
TTITLE0=The Red Headed Stranger
TTITLE1=On The Road Again
TTITLE2=City Of New Orleans
TTITLE3=If You've Got The Money
TTITLE4=Wiskey River
TTITLE5=Till I Gain Control Again
TTITLE6=You Were Always On My Mind
TTITLE7=Stardust
TTITLE8=Medley: Time Slipping Away/Crazy/Night Life
TTITLE9=Georgia On My Mind
TTITLE10=Blue Eyes Crying In The Rain
TTITLE11=Right From Wrong
TTITLE12=Go Away
TTITLE13=I'll Stay Around
EXTD=
EXTT0=
EXTT1=
EXTT2=
EXTT3=
EXTT4=
EXTT5=
EXTT6=
EXTT7=
EXTT8=
EXTT9=
EXTT10=
EXTT11=
EXTT12=
EXTT13=
PLAYORDER=
